<mxfile host="app.diagrams.net" agent="Mozilla/5.0 (Windows NT 10.0; Win64; x64) AppleWebKit/537.36 (KHTML, like Gecko) Chrome/128.0.0.0 Safari/537.36 OPR/114.0.0.0" version="24.8.3">
  <diagram name="Page-1" id="bQh-fyfDhcI3Z8VhhJqZ">
    <mxGraphModel grid="1" page="1" gridSize="10" guides="1" tooltips="1" connect="1" arrows="1" fold="1" pageScale="1" pageWidth="850" pageHeight="1100" math="0" shadow="0">
      <root>
        <mxCell id="0" />
        <mxCell id="1" parent="0" />
        <mxCell id="ppVFqjF2NIiO2CyRS-2U-1" value="user ID&lt;div&gt;Name&lt;/div&gt;&lt;div&gt;email&lt;/div&gt;&lt;div&gt;role&lt;/div&gt;" style="html=1;dashed=0;whiteSpace=wrap;" vertex="1" parent="1">
          <mxGeometry x="290" y="40" width="200" height="120" as="geometry" />
        </mxCell>
        <mxCell id="ppVFqjF2NIiO2CyRS-2U-3" value="" style="html=1;dashed=0;whiteSpace=wrap;" vertex="1" parent="1">
          <mxGeometry x="620" y="320" width="200" height="120" as="geometry" />
        </mxCell>
        <mxCell id="ppVFqjF2NIiO2CyRS-2U-4" value="" style="html=1;dashed=0;whiteSpace=wrap;" vertex="1" parent="1">
          <mxGeometry x="300" y="315" width="200" height="135" as="geometry" />
        </mxCell>
        <mxCell id="ppVFqjF2NIiO2CyRS-2U-5" value="" style="html=1;dashed=0;whiteSpace=wrap;" vertex="1" parent="1">
          <mxGeometry x="10" y="320" width="200" height="120" as="geometry" />
        </mxCell>
        <mxCell id="ppVFqjF2NIiO2CyRS-2U-9" value="" style="endArrow=classic;html=1;rounded=0;exitX=0.4;exitY=0.008;exitDx=0;exitDy=0;exitPerimeter=0;" edge="1" parent="1" source="ppVFqjF2NIiO2CyRS-2U-4">
          <mxGeometry width="50" height="50" relative="1" as="geometry">
            <mxPoint x="380" y="240" as="sourcePoint" />
            <mxPoint x="380" y="161" as="targetPoint" />
          </mxGeometry>
        </mxCell>
        <mxCell id="ppVFqjF2NIiO2CyRS-2U-10" value="" style="endArrow=none;html=1;rounded=0;exitX=0.5;exitY=0;exitDx=0;exitDy=0;entryX=0.5;entryY=0;entryDx=0;entryDy=0;" edge="1" parent="1" source="ppVFqjF2NIiO2CyRS-2U-5" target="ppVFqjF2NIiO2CyRS-2U-3">
          <mxGeometry width="50" height="50" relative="1" as="geometry">
            <mxPoint x="400" y="270" as="sourcePoint" />
            <mxPoint x="450" y="220" as="targetPoint" />
            <Array as="points">
              <mxPoint x="110" y="240" />
              <mxPoint x="720" y="240" />
            </Array>
          </mxGeometry>
        </mxCell>
        <mxCell id="ppVFqjF2NIiO2CyRS-2U-11" value="" style="endArrow=none;html=1;rounded=0;exitX=0;exitY=0.25;exitDx=0;exitDy=0;entryX=1;entryY=0.25;entryDx=0;entryDy=0;" edge="1" parent="1" source="ppVFqjF2NIiO2CyRS-2U-5" target="ppVFqjF2NIiO2CyRS-2U-5">
          <mxGeometry width="50" height="50" relative="1" as="geometry">
            <mxPoint x="400" y="270" as="sourcePoint" />
            <mxPoint x="450" y="220" as="targetPoint" />
          </mxGeometry>
        </mxCell>
        <mxCell id="ppVFqjF2NIiO2CyRS-2U-12" value="" style="endArrow=none;html=1;rounded=0;exitX=0;exitY=0.25;exitDx=0;exitDy=0;entryX=1;entryY=0.25;entryDx=0;entryDy=0;" edge="1" parent="1" source="ppVFqjF2NIiO2CyRS-2U-4" target="ppVFqjF2NIiO2CyRS-2U-4">
          <mxGeometry width="50" height="50" relative="1" as="geometry">
            <mxPoint x="410" y="280" as="sourcePoint" />
            <mxPoint x="460" y="230" as="targetPoint" />
          </mxGeometry>
        </mxCell>
        <mxCell id="ppVFqjF2NIiO2CyRS-2U-13" value="" style="endArrow=none;html=1;rounded=0;entryX=1;entryY=0.25;entryDx=0;entryDy=0;exitX=0;exitY=0.25;exitDx=0;exitDy=0;" edge="1" parent="1" source="ppVFqjF2NIiO2CyRS-2U-3" target="ppVFqjF2NIiO2CyRS-2U-3">
          <mxGeometry width="50" height="50" relative="1" as="geometry">
            <mxPoint x="420" y="290" as="sourcePoint" />
            <mxPoint x="470" y="240" as="targetPoint" />
          </mxGeometry>
        </mxCell>
        <mxCell id="ppVFqjF2NIiO2CyRS-2U-14" value="" style="endArrow=none;html=1;rounded=0;exitX=0;exitY=0.25;exitDx=0;exitDy=0;entryX=1;entryY=0.25;entryDx=0;entryDy=0;" edge="1" parent="1" source="ppVFqjF2NIiO2CyRS-2U-1" target="ppVFqjF2NIiO2CyRS-2U-1">
          <mxGeometry width="50" height="50" relative="1" as="geometry">
            <mxPoint x="430" y="300" as="sourcePoint" />
            <mxPoint x="480" y="250" as="targetPoint" />
          </mxGeometry>
        </mxCell>
        <mxCell id="ppVFqjF2NIiO2CyRS-2U-15" value="User" style="text;html=1;align=center;verticalAlign=middle;resizable=0;points=[];autosize=1;strokeColor=none;fillColor=none;" vertex="1" parent="1">
          <mxGeometry x="358" y="41" width="50" height="30" as="geometry" />
        </mxCell>
        <mxCell id="ppVFqjF2NIiO2CyRS-2U-16" value="Generate Report()" style="text;html=1;align=center;verticalAlign=middle;resizable=0;points=[];autosize=1;strokeColor=none;fillColor=none;" vertex="1" parent="1">
          <mxGeometry x="45" y="416" width="120" height="30" as="geometry" />
        </mxCell>
        <mxCell id="ppVFqjF2NIiO2CyRS-2U-17" value="Teacher" style="text;html=1;align=center;verticalAlign=middle;resizable=0;points=[];autosize=1;strokeColor=none;fillColor=none;" vertex="1" parent="1">
          <mxGeometry x="75" y="320" width="70" height="30" as="geometry" />
        </mxCell>
        <mxCell id="ppVFqjF2NIiO2CyRS-2U-18" value="Text" style="text;html=1;align=center;verticalAlign=middle;resizable=0;points=[];autosize=1;strokeColor=none;fillColor=none;" vertex="1" parent="1">
          <mxGeometry x="695" y="410" width="50" height="30" as="geometry" />
        </mxCell>
        <mxCell id="ppVFqjF2NIiO2CyRS-2U-19" value="Mark attendance()" style="text;html=1;align=center;verticalAlign=middle;resizable=0;points=[];autosize=1;strokeColor=none;fillColor=none;" vertex="1" parent="1">
          <mxGeometry x="45" y="402" width="120" height="30" as="geometry" />
        </mxCell>
        <mxCell id="ppVFqjF2NIiO2CyRS-2U-20" value="View attendance" style="text;html=1;align=center;verticalAlign=middle;resizable=0;points=[];autosize=1;strokeColor=none;fillColor=none;" vertex="1" parent="1">
          <mxGeometry x="50" y="375" width="110" height="30" as="geometry" />
        </mxCell>
        <mxCell id="ppVFqjF2NIiO2CyRS-2U-21" value="StaffID" style="text;html=1;align=center;verticalAlign=middle;resizable=0;points=[];autosize=1;strokeColor=none;fillColor=none;" vertex="1" parent="1">
          <mxGeometry x="75" y="344" width="60" height="30" as="geometry" />
        </mxCell>
        <mxCell id="ppVFqjF2NIiO2CyRS-2U-22" value="Add User" style="text;html=1;align=center;verticalAlign=middle;resizable=0;points=[];autosize=1;strokeColor=none;fillColor=none;" vertex="1" parent="1">
          <mxGeometry x="333" y="368" width="70" height="30" as="geometry" />
        </mxCell>
        <mxCell id="ppVFqjF2NIiO2CyRS-2U-23" value="Add class()" style="text;html=1;align=center;verticalAlign=middle;resizable=0;points=[];autosize=1;strokeColor=none;fillColor=none;" vertex="1" parent="1">
          <mxGeometry x="320" y="398" width="80" height="30" as="geometry" />
        </mxCell>
        <mxCell id="ppVFqjF2NIiO2CyRS-2U-24" value="AdminID()" style="text;html=1;align=center;verticalAlign=middle;resizable=0;points=[];autosize=1;strokeColor=none;fillColor=none;" vertex="1" parent="1">
          <mxGeometry x="338" y="348" width="80" height="30" as="geometry" />
        </mxCell>
        <mxCell id="ppVFqjF2NIiO2CyRS-2U-25" value="view attendance" style="text;html=1;align=center;verticalAlign=middle;resizable=0;points=[];autosize=1;strokeColor=none;fillColor=none;" vertex="1" parent="1">
          <mxGeometry x="665" y="390" width="110" height="30" as="geometry" />
        </mxCell>
        <mxCell id="ppVFqjF2NIiO2CyRS-2U-26" value="StudentID" style="text;html=1;align=center;verticalAlign=middle;resizable=0;points=[];autosize=1;strokeColor=none;fillColor=none;" vertex="1" parent="1">
          <mxGeometry x="680" y="348" width="80" height="30" as="geometry" />
        </mxCell>
        <mxCell id="ppVFqjF2NIiO2CyRS-2U-27" value="Student" style="text;html=1;align=center;verticalAlign=middle;resizable=0;points=[];autosize=1;strokeColor=none;fillColor=none;" vertex="1" parent="1">
          <mxGeometry x="690" y="320" width="60" height="30" as="geometry" />
        </mxCell>
        <mxCell id="ppVFqjF2NIiO2CyRS-2U-28" value="Admin" style="text;html=1;align=center;verticalAlign=middle;resizable=0;points=[];autosize=1;strokeColor=none;fillColor=none;" vertex="1" parent="1">
          <mxGeometry x="353" y="320" width="60" height="30" as="geometry" />
        </mxCell>
        <mxCell id="ppVFqjF2NIiO2CyRS-2U-29" value="Delete user()" style="text;html=1;align=center;verticalAlign=middle;resizable=0;points=[];autosize=1;strokeColor=none;fillColor=none;" vertex="1" parent="1">
          <mxGeometry x="328" y="383" width="90" height="30" as="geometry" />
        </mxCell>
        <mxCell id="ppVFqjF2NIiO2CyRS-2U-30" value="Update Class()" style="text;html=1;align=center;verticalAlign=middle;resizable=0;points=[];autosize=1;strokeColor=none;fillColor=none;" vertex="1" parent="1">
          <mxGeometry x="325" y="412" width="100" height="30" as="geometry" />
        </mxCell>
        <mxCell id="ppVFqjF2NIiO2CyRS-2U-31" value="Delete Class()" style="text;html=1;align=center;verticalAlign=middle;resizable=0;points=[];autosize=1;strokeColor=none;fillColor=none;" vertex="1" parent="1">
          <mxGeometry x="328" y="428" width="100" height="30" as="geometry" />
        </mxCell>
        <mxCell id="ppVFqjF2NIiO2CyRS-2U-32" value="" style="endArrow=none;html=1;rounded=0;entryX=0.99;entryY=0.444;entryDx=0;entryDy=0;entryPerimeter=0;exitX=0.005;exitY=0.459;exitDx=0;exitDy=0;exitPerimeter=0;" edge="1" parent="1" source="ppVFqjF2NIiO2CyRS-2U-4" target="ppVFqjF2NIiO2CyRS-2U-4">
          <mxGeometry width="50" height="50" relative="1" as="geometry">
            <mxPoint x="400" y="270" as="sourcePoint" />
            <mxPoint x="450" y="220" as="targetPoint" />
          </mxGeometry>
        </mxCell>
        <mxCell id="ppVFqjF2NIiO2CyRS-2U-33" value="" style="endArrow=none;html=1;rounded=0;entryX=0.005;entryY=0.417;entryDx=0;entryDy=0;exitX=1.01;exitY=0.383;exitDx=0;exitDy=0;exitPerimeter=0;entryPerimeter=0;" edge="1" parent="1" source="ppVFqjF2NIiO2CyRS-2U-5" target="ppVFqjF2NIiO2CyRS-2U-5">
          <mxGeometry width="50" height="50" relative="1" as="geometry">
            <mxPoint x="400" y="270" as="sourcePoint" />
            <mxPoint x="450" y="220" as="targetPoint" />
          </mxGeometry>
        </mxCell>
      </root>
    </mxGraphModel>
  </diagram>
</mxfile>
